<svg width="43" height="43" viewBox="0 0 43 43" fill="none" xmlns="http://www.w3.org/2000/svg">
<path d="M13.295 11.5181C13.715 9.33557 14.2875 7.37557 14.97 5.71807C15.7225 3.88557 16.59 2.48307 17.49 1.56057C18.385 0.640566 19.2325 0.268066 20 0.268066C20.7675 0.268066 21.615 0.640566 22.51 1.56057C23.41 2.48557 24.2775 3.88557 25.03 5.71807C25.7125 7.37557 26.285 9.33557 26.705 11.5181H13.295ZM12.6575 4.76807C13.1911 3.42276 13.8853 2.14686 14.725 0.968066C11.9778 1.7223 9.42278 3.05334 7.23031 4.87249C5.03784 6.69165 3.25822 8.95716 2.01001 11.5181H10.7525C11.2075 9.00057 11.855 6.71307 12.6575 4.76807V4.76807ZM27.3425 4.76807C26.8087 3.42365 26.1145 2.1486 25.275 0.970566C28.022 1.72452 30.5769 3.05518 32.7693 4.87389C34.9618 6.6926 36.7415 8.95762 37.99 11.5181H29.2475C28.7925 9.00057 28.145 6.71307 27.3425 4.76807V4.76807ZM29.625 14.0181H39.005C39.59 15.7981 39.93 17.6881 39.99 19.6506C38.149 18.407 35.974 17.7515 33.7525 17.7706C32.4025 17.7706 31.1325 17.9956 29.9675 18.4081C29.9174 16.9404 29.8031 15.4757 29.625 14.0181ZM27.4975 19.6631C27.4771 17.7753 27.346 15.8904 27.105 14.0181H12.895C12.6291 16.0907 12.4972 18.1784 12.5 20.2681C12.5 22.4556 12.64 24.5531 12.895 26.5181H22.85C23.53 23.6981 25.175 21.2456 27.4975 19.6631V19.6631ZM22.5075 29.0181H13.295C13.715 31.2006 14.2875 33.1606 14.97 34.8181C15.7225 36.6506 16.59 38.0531 17.49 38.9756C18.385 39.8956 19.2325 40.2681 20 40.2681C20.7675 40.2681 21.615 39.8956 22.51 38.9756C23.145 38.3256 23.765 37.4331 24.34 36.3181C23.1125 33.9831 22.5 31.6431 22.5 29.4731L22.5075 29.0181V29.0181ZM2.01001 29.0181C3.25876 31.5788 5.0389 33.844 7.2318 35.6627C9.42471 37.4814 11.98 38.8119 14.7275 39.5656C13.8873 38.3885 13.1923 37.1143 12.6575 35.7706C11.8575 33.8206 11.2075 31.5356 10.7525 29.0181H2.01001V29.0181ZM10.375 26.5181H0.995014C0.333408 24.5008 -0.00247141 22.391 1.36894e-05 20.2681C1.36894e-05 18.0856 0.350014 15.9856 0.995014 14.0181H10.375C10.13 16.0056 10 18.1031 10 20.2681C10 22.4331 10.13 24.5306 10.375 26.5181ZM42.5 29.4731C42.5 24.3906 38.8375 20.2706 33.7525 20.2706C28.67 20.2706 25 24.3906 25 29.4731C25 33.2831 27.455 38.2981 33.14 42.5631C33.5025 42.8381 34.0025 42.8381 34.365 42.5631C40.055 38.2981 42.5 33.2831 42.5 29.4731ZM37.5 29.0181C37.5 30.0126 37.1049 30.9665 36.4017 31.6697C35.6984 32.373 34.7446 32.7681 33.75 32.7681C32.7554 32.7681 31.8016 32.373 31.0984 31.6697C30.3951 30.9665 30 30.0126 30 29.0181C30 28.0235 30.3951 27.0697 31.0984 26.3664C31.8016 25.6632 32.7554 25.2681 33.75 25.2681C34.7446 25.2681 35.6984 25.6632 36.4017 26.3664C37.1049 27.0697 37.5 28.0235 37.5 29.0181V29.0181Z" fill="black"/>
</svg>
