<svg width="45" height="45" viewBox="0 0 45 45" fill="none" xmlns="http://www.w3.org/2000/svg">
<path d="M22.2222 0.183228C17.8271 0.183228 13.5307 1.48654 9.87623 3.92835C6.2218 6.37016 3.37352 9.84079 1.69158 13.9014C0.00962847 17.962 -0.430446 22.4301 0.427004 26.7408C1.28445 31.0515 3.40091 35.0111 6.50875 38.1189C9.61658 41.2268 13.5762 43.3432 17.8869 44.2007C22.1976 45.0581 26.6657 44.6181 30.7263 42.9361C34.7869 41.2542 38.2575 38.4059 40.6993 34.7515C43.1411 31.097 44.4445 26.8006 44.4445 22.4054C44.4445 16.5117 42.1032 10.8594 37.9357 6.69197C33.7682 2.52449 28.1159 0.183228 22.2222 0.183228V0.183228ZM37.5 25.1832H33.5972L30.5556 36.7388C30.4591 37.1111 30.2416 37.4408 29.9375 37.6761C29.6333 37.9115 29.2596 38.0392 28.875 38.0392C28.4904 38.0392 28.1167 37.9115 27.8125 37.6761C27.5084 37.4408 27.291 37.1111 27.1945 36.7388L24.1389 25.1832H20.4028L17.3611 36.7388C17.2646 37.1111 17.0472 37.4408 16.743 37.6761C16.4389 37.9115 16.0652 38.0392 15.6806 38.0392C15.296 38.0392 14.9223 37.9115 14.6181 37.6761C14.3139 37.4408 14.0965 37.1111 14 36.7388L10.9445 25.1832H6.94445C6.5761 25.1832 6.22283 25.0369 5.96236 24.7764C5.70189 24.516 5.55557 24.1627 5.55557 23.7943C5.55557 23.426 5.70189 23.0727 5.96236 22.8122C6.22283 22.5518 6.5761 22.4054 6.94445 22.4054H10.2083L9.47223 19.6277H6.94445C6.5761 19.6277 6.22283 19.4813 5.96236 19.2209C5.70189 18.9604 5.55557 18.6071 5.55557 18.2388C5.55557 17.8704 5.70189 17.5172 5.96236 17.2567C6.22283 16.9962 6.5761 16.8499 6.94445 16.8499H8.75001L7.36112 11.7388C7.24325 11.2931 7.30726 10.8188 7.53907 10.4203C7.77089 10.0218 8.15152 9.73166 8.59723 9.61378C9.04294 9.49591 9.51722 9.55992 9.91574 9.79174C10.3143 10.0236 10.6044 10.4042 10.7222 10.8499L12.3333 16.8499H19L20.5833 10.8499C20.6799 10.4776 20.8973 10.1479 21.2014 9.91253C21.5056 9.67717 21.8793 9.54946 22.2639 9.54946C22.6485 9.54946 23.0222 9.67717 23.3264 9.91253C23.6305 10.1479 23.8479 10.4776 23.9445 10.8499L25.5278 16.8499H32.1945L33.7778 10.8499C33.8957 10.4042 34.1858 10.0236 34.5843 9.79174C34.9828 9.55992 35.4571 9.49591 35.9028 9.61378C36.3485 9.73166 36.7291 10.0218 36.9609 10.4203C37.1928 10.8188 37.2568 11.2931 37.1389 11.7388L35.75 16.8499H37.5C37.8684 16.8499 38.2216 16.9962 38.4821 17.2567C38.7426 17.5172 38.8889 17.8704 38.8889 18.2388C38.8889 18.6071 38.7426 18.9604 38.4821 19.2209C38.2216 19.4813 37.8684 19.6277 37.5 19.6277H35.0556L34.3195 22.4054H37.5C37.8684 22.4054 38.2216 22.5518 38.4821 22.8122C38.7426 23.0727 38.8889 23.426 38.8889 23.7943C38.8889 24.1627 38.7426 24.516 38.4821 24.7764C38.2216 25.0369 37.8684 25.1832 37.5 25.1832Z" fill="black"/>
</svg>
