<svg width="51" height="51" viewBox="0 0 51 51" fill="none" xmlns="http://www.w3.org/2000/svg">
<g clip-path="url(#clip0_126_4212)">
<path d="M38.9765 31.5034C38.4882 30.6167 39.1093 29.7144 40.1718 28.5972C41.8554 26.8237 43.6874 22.7104 41.9843 18.5347C41.996 18.5112 41.6483 17.8081 41.66 17.7847L40.9608 17.7495C40.7382 17.7183 33.0468 17.7026 25.3476 17.7026C17.6483 17.7026 9.95692 17.7183 9.73427 17.7495C9.73427 17.7495 8.69911 18.5112 8.70692 18.5347C7.0077 22.7104 8.83583 26.8237 10.5194 28.5972C11.578 29.7144 12.1991 30.6167 11.7147 31.5034C11.2421 32.3667 9.83583 32.4917 9.83583 32.4917C9.83583 32.4917 10.16 33.3745 10.9413 33.8511C11.664 34.2925 12.5546 34.394 13.1679 34.4097C13.1679 34.4097 15.5702 37.7339 21.8515 37.7339H28.8436C35.1249 37.7339 37.5272 34.4097 37.5272 34.4097C38.1405 34.394 39.0311 34.2925 39.7538 33.8511C40.5351 33.3745 40.8593 32.4917 40.8593 32.4917C40.8593 32.4917 39.4491 32.3628 38.9765 31.5034V31.5034Z" fill="#543930"/>
<path d="M25.3398 37.73V34.0425L36.5 33.1597L37.5156 34.4097C37.5156 34.4097 35.1133 37.7339 28.832 37.7339L25.3398 37.73V37.73Z" fill="url(#paint0_radial_126_4212)"/>
<path d="M37.4922 32.7964C35.8204 30.2573 39.5274 29.3081 39.5274 29.3081L39.5313 29.312C38.8868 30.1128 38.5938 30.812 38.9727 31.5034C39.4454 32.3667 40.8516 32.4917 40.8516 32.4917C40.8516 32.4917 38.9336 34.1948 37.4922 32.7964Z" fill="url(#paint1_radial_126_4212)"/>
<path d="M41.9922 18.5347C43.6523 22.5776 41.9063 26.7417 40.2695 28.4995C40.0469 28.7417 39.0938 29.6753 38.875 30.4214C38.875 30.4214 35.1484 25.2222 34.0352 22.1675C33.8125 21.5503 33.6055 20.9175 33.5781 20.2612C33.5586 19.769 33.6328 19.1831 33.918 18.7651C34.2656 18.2534 41.793 18.1011 41.793 18.1011C41.793 18.105 41.9922 18.5347 41.9922 18.5347V18.5347Z" fill="url(#paint2_radial_126_4212)"/>
<path d="M8.70303 18.5347C7.04287 22.5776 8.78897 26.7417 10.4257 28.4995C10.6522 28.7417 11.6015 29.6753 11.8202 30.4214C11.8202 30.4214 15.5468 25.2222 16.6601 22.1675C16.8866 21.5503 17.0897 20.9175 17.1171 20.2612C17.1366 19.769 17.0624 19.1831 16.7773 18.7651C16.4296 18.2534 16.0233 18.3901 15.4335 18.3901C14.3085 18.3901 9.38272 18.1011 8.99991 18.1011C9.00381 18.105 8.70303 18.5347 8.70303 18.5347V18.5347Z" fill="url(#paint3_radial_126_4212)"/>
<path d="M25.3555 37.73V34.0425L14.1953 33.1597L13.1797 34.4097C13.1797 34.4097 15.582 37.7339 21.8633 37.7339L25.3555 37.73Z" fill="url(#paint4_radial_126_4212)"/>
<path d="M13.2031 32.7964C14.875 30.2573 11.168 29.3081 11.168 29.3081L11.1641 29.312C11.8086 30.1128 12.1016 30.812 11.7227 31.5034C11.25 32.3667 9.84375 32.4917 9.84375 32.4917C9.84375 32.4917 11.7617 34.1948 13.2031 32.7964Z" fill="url(#paint5_radial_126_4212)"/>
<path d="M29.1641 44.1128V35.2104H21.5195V44.1128H29.1641ZM36.0195 20.0112H14.668C12.3672 20.0112 10.4844 22.0151 10.4844 24.4683C10.4844 26.9214 12.3672 28.9253 14.668 28.9253H36.0156C38.3164 28.9253 40.1992 26.9175 40.1992 24.4683C40.2031 22.019 38.3203 20.0112 36.0195 20.0112Z" fill="#E59600"/>
<path d="M25.3438 4.63623C18.5469 4.63623 12.25 11.9058 12.25 22.3706C12.25 32.7769 18.7383 37.9214 25.3438 37.9214C31.9492 37.9214 38.4375 32.7769 38.4375 22.3706C38.4375 11.9058 32.1406 4.63623 25.3438 4.63623V4.63623Z" fill="#FFCA28"/>
<path d="M21.7501 19.769C21.3868 19.2886 20.5509 18.5933 18.9259 18.5933C17.3009 18.5933 16.461 19.2925 16.1017 19.769C15.9415 19.98 15.9806 20.2261 16.0938 20.3745C16.1954 20.5112 16.5001 20.6401 16.836 20.5269C17.172 20.4136 17.8282 20.0737 18.9259 20.0659C20.0235 20.0737 20.6798 20.4136 21.0157 20.5269C21.3516 20.6401 21.6563 20.5151 21.7579 20.3745C21.8673 20.23 21.9102 19.9839 21.7501 19.769V19.769ZM34.5899 19.769C34.2266 19.2886 33.3907 18.5933 31.7657 18.5933C30.1407 18.5933 29.3009 19.2925 28.9415 19.769C28.7813 19.98 28.8204 20.2261 28.9337 20.3745C29.0352 20.5112 29.3399 20.6401 29.6759 20.5269C30.0118 20.4136 30.6681 20.0737 31.7657 20.0659C32.8634 20.0737 33.5196 20.4136 33.8556 20.5269C34.1915 20.6401 34.4962 20.5151 34.5977 20.3745C34.7071 20.23 34.7501 19.9839 34.5899 19.769Z" fill="#6D4C41"/>
<path d="M18.9219 25.2769C19.9855 25.2769 20.8477 24.3849 20.8477 23.2847C20.8477 22.1844 19.9855 21.2925 18.9219 21.2925C17.8583 21.2925 16.9961 22.1844 16.9961 23.2847C16.9961 24.3849 17.8583 25.2769 18.9219 25.2769Z" fill="#404040"/>
<path d="M31.7656 25.2769C32.8292 25.2769 33.6914 24.3849 33.6914 23.2847C33.6914 22.1844 32.8292 21.2925 31.7656 21.2925C30.702 21.2925 29.8398 22.1844 29.8398 23.2847C29.8398 24.3849 30.702 25.2769 31.7656 25.2769Z" fill="#404040"/>
<path d="M28.6328 30.0542C27.3906 30.7925 23.3086 30.7925 22.0664 30.0542C21.3516 29.6284 20.6211 30.2808 20.918 30.9292C21.211 31.5659 23.4336 33.0464 25.3594 33.0464C27.2852 33.0464 29.4805 31.5659 29.7735 30.9292C30.0664 30.2808 29.3477 29.6284 28.6328 30.0542Z" fill="#795548"/>
<path d="M26.8516 26.894C26.8086 26.8784 26.7695 26.8667 26.7266 26.8628H23.9609C23.918 26.8667 23.875 26.8784 23.8359 26.894C23.5859 26.9956 23.4492 27.2534 23.5664 27.5308C23.6836 27.8081 24.2344 28.5815 25.3438 28.5815C26.4531 28.5815 27.0039 27.8042 27.1211 27.5308C27.2383 27.2573 27.1016 26.9956 26.8516 26.894V26.894Z" fill="#E59600"/>
<path d="M39.121 9.50729C38.8124 7.66354 33.7108 4.38229 31.8007 3.77683C26.6288 2.14011 23.2655 2.80417 21.4608 3.78854C21.0858 3.99167 18.6601 5.33933 16.9648 4.37448C15.9023 3.76901 12.8515 8.60886 11.3163 9.53464C9.52335 10.6167 9.6796 12.5854 9.95304 13.351C8.96866 14.187 7.73038 15.9643 8.57804 18.2729C9.21866 20.0112 11.7694 20.812 11.7694 20.812C11.5273 25.0073 12.6601 27.0424 12.6601 27.0424C12.6601 27.0424 14.4921 19.8354 14.3398 18.7339C14.3398 18.7339 17.371 18.1323 20.8124 16.1635C23.1366 14.8315 24.7265 13.2729 27.3398 12.6831C31.3163 11.7885 32.203 14.6675 32.203 14.6675C32.203 14.6675 35.8827 13.9604 36.9921 19.0698C37.4491 21.1714 37.746 24.6557 37.996 26.7924C37.9726 26.6049 39.2616 24.3198 39.5038 21.976C39.5663 21.3706 41.1991 20.5698 41.9023 17.9682C42.8398 14.4995 41.8085 10.7417 39.121 9.50729V9.50729Z" fill="#543930"/>
<path d="M41.9062 17.9644C41.3203 20.1245 40.0977 21.0425 39.6602 21.6401C39.0586 17.98 39.1523 14.5034 34.6953 10.3862C34.6953 10.3862 35.5898 10.1948 36.0273 9.39795C36.3672 8.77686 36.2383 8.00342 36.2383 8.00342C36.3867 8.01123 36.5391 8.02685 36.6953 8.04639C37.4609 8.18701 38.2422 8.56201 38.957 9.04248C39.043 9.20654 39.0977 9.36279 39.1211 9.50732C41.8086 10.7378 42.8437 14.4956 41.9062 17.9644V17.9644Z" fill="url(#paint6_radial_126_4212)"/>
<path d="M13.1132 12.4175V12.3979C11.9296 12.3979 10.7968 12.7534 10.0586 13.2612C10.0586 13.273 9.99996 13.3159 9.95308 13.3511V13.3472C9.95699 13.3433 9.9648 13.3394 9.96871 13.3354C9.69527 12.5698 9.53512 10.6011 11.332 9.51904C11.5039 9.41357 11.6953 9.26123 11.9023 9.06982C12.3789 8.87451 12.8867 8.76123 13.3554 8.71436C13.4921 8.70264 13.7421 8.68311 13.8164 8.68311L15.6953 8.91357L13.1132 12.4175Z" fill="url(#paint7_radial_126_4212)"/>
<path d="M45.918 21.1675C45.4336 21.1675 45.0391 21.5425 45.0391 22.0034V25.5972C45.0391 26.0581 45.4336 26.4331 45.918 26.4331C46.4023 26.4331 46.7969 26.0581 46.7969 25.5972V22.0034C46.7969 21.5425 46.4023 21.1675 45.918 21.1675ZM44.1602 21.1675C43.6758 21.1675 43.2812 21.5425 43.2812 22.0034V25.5972C43.2812 26.0581 43.6758 26.4331 44.1602 26.4331C44.6445 26.4331 45.0391 26.0581 45.0391 25.5972V22.0034C45.0391 21.5425 44.6445 21.1675 44.1602 21.1675Z" fill="#E8AD00"/>
<path d="M45.0391 21.1675C44.5547 21.1675 44.1602 21.5425 44.1602 22.0034V26.3745C44.1602 26.8354 44.5547 27.2104 45.0391 27.2104C45.5234 27.2104 45.918 26.8354 45.918 26.3745V22.0034C45.918 21.5425 45.5234 21.1675 45.0391 21.1675Z" fill="#FFCA28"/>
<path d="M45.0391 21.7144C45.6345 21.7144 46.1172 21.2544 46.1172 20.687C46.1172 20.1196 45.6345 19.6597 45.0391 19.6597C44.4436 19.6597 43.9609 20.1196 43.9609 20.687C43.9609 21.2544 44.4436 21.7144 45.0391 21.7144Z" fill="#FFCA28"/>
<path d="M45.0391 20.6753C44.8242 20.6753 44.6484 20.4995 44.6484 20.2847V5.44092C44.6484 5.22607 44.8242 5.05029 45.0391 5.05029C45.2539 5.05029 45.4297 5.22607 45.4297 5.44092V20.2847C45.4297 20.4995 45.2539 20.6753 45.0391 20.6753Z" fill="#504F4F"/>
<path d="M45.4297 5.03467C33.3867 2.00732 25.1172 1.90967 25.1172 1.90967C25.1172 1.90967 16.8477 2.00732 4.80469 5.03467V5.33545C4.80469 5.85498 5.14453 6.31201 5.64063 6.45654C7.09375 6.88623 10.1211 7.76123 12.0977 8.15967C12.0977 8.15967 11.6641 8.82764 11.3164 9.53467C11.3164 9.53467 15.2031 11.8472 25.1172 12.8472C35.0312 11.8472 39.1211 9.50732 39.1211 9.50732C38.7773 8.80029 38.3477 8.15967 38.3477 8.15967C40.1055 7.87061 43.1602 6.93311 44.6133 6.47217C45.1016 6.31592 45.4297 5.8667 45.4297 5.35498V5.03467V5.03467Z" fill="url(#paint8_linear_126_4212)"/>
<path d="M25.1172 1.90967C25.1172 1.90967 16.8477 2.00732 4.80469 5.03467C4.80469 5.03467 18.6367 8.81201 25.1172 8.69873C31.5977 8.81201 45.4297 5.03467 45.4297 5.03467C33.3828 2.00732 25.1172 1.90967 25.1172 1.90967V1.90967Z" fill="url(#paint9_linear_126_4212)"/>
<path d="M45.0703 47.6089C45.0703 41.9019 36.5742 39.1948 29.1641 38.5854L25.8047 42.894C25.6953 43.0347 25.5234 43.1206 25.3438 43.1206C25.1641 43.1206 24.9922 43.0386 24.8828 42.894L21.5156 38.5776C17.3945 38.894 5.61328 40.4331 5.61328 47.6089V48.7847H45.0664L45.0703 47.6089V47.6089Z" fill="#212121"/>
<path d="M45.0703 47.6089C45.0703 41.9019 36.5742 39.1948 29.1641 38.5854L25.8047 42.894C25.6953 43.0347 25.5234 43.1206 25.3438 43.1206C25.1641 43.1206 24.9922 43.0386 24.8828 42.894L21.5156 38.5776C17.3945 38.894 5.61328 40.4331 5.61328 47.6089V48.7847H45.0664L45.0703 47.6089V47.6089Z" fill="url(#paint10_radial_126_4212)"/>
</g>
<defs>
<radialGradient id="paint0_radial_126_4212" cx="0" cy="0" r="1" gradientUnits="userSpaceOnUse" gradientTransform="translate(31.0402 32.4012) scale(9.14805 4.49352)">
<stop offset="0.728" stop-color="#6D4C41" stop-opacity="0"/>
<stop offset="1" stop-color="#6D4C41"/>
</radialGradient>
<radialGradient id="paint1_radial_126_4212" cx="0" cy="0" r="1" gradientUnits="userSpaceOnUse" gradientTransform="translate(40.0513 31.0403) rotate(154.924) scale(2.70338 2.00552)">
<stop offset="0.663" stop-color="#6D4C41"/>
<stop offset="1" stop-color="#6D4C41" stop-opacity="0"/>
</radialGradient>
<radialGradient id="paint2_radial_126_4212" cx="0" cy="0" r="1" gradientUnits="userSpaceOnUse" gradientTransform="translate(33.045 23.3939) rotate(-94.2783) scale(11.8744 9.89659)">
<stop offset="0.725" stop-color="#6D4C41" stop-opacity="0"/>
<stop offset="1" stop-color="#6D4C41"/>
</radialGradient>
<radialGradient id="paint3_radial_126_4212" cx="0" cy="0" r="1" gradientUnits="userSpaceOnUse" gradientTransform="translate(17.6515 23.3937) rotate(-85.7217) scale(11.8744 9.89659)">
<stop offset="0.725" stop-color="#6D4C41" stop-opacity="0"/>
<stop offset="1" stop-color="#6D4C41"/>
</radialGradient>
<radialGradient id="paint4_radial_126_4212" cx="0" cy="0" r="1" gradientUnits="userSpaceOnUse" gradientTransform="translate(19.6559 32.4012) rotate(180) scale(9.14805 4.49352)">
<stop offset="0.728" stop-color="#6D4C41" stop-opacity="0"/>
<stop offset="1" stop-color="#6D4C41"/>
</radialGradient>
<radialGradient id="paint5_radial_126_4212" cx="0" cy="0" r="1" gradientUnits="userSpaceOnUse" gradientTransform="translate(10.6459 31.0405) rotate(25.0761) scale(2.70338 2.00552)">
<stop offset="0.663" stop-color="#6D4C41"/>
<stop offset="1" stop-color="#6D4C41" stop-opacity="0"/>
</radialGradient>
<radialGradient id="paint6_radial_126_4212" cx="0" cy="0" r="1" gradientUnits="userSpaceOnUse" gradientTransform="translate(32.7152 17.3244) rotate(72.0851) scale(13.2326 9.81828)">
<stop offset="0.699" stop-color="#6D4C41" stop-opacity="0"/>
<stop offset="1" stop-color="#6D4C41"/>
</radialGradient>
<radialGradient id="paint7_radial_126_4212" cx="0" cy="0" r="1" gradientUnits="userSpaceOnUse" gradientTransform="translate(14.83 12.9345) rotate(-164.942) scale(5.05526 4.73081)">
<stop offset="0.66" stop-color="#6D4C41" stop-opacity="0"/>
<stop offset="1" stop-color="#6D4C41"/>
</radialGradient>
<linearGradient id="paint8_linear_126_4212" x1="25.116" y1="0.21709" x2="25.116" y2="11.4046" gradientUnits="userSpaceOnUse">
<stop offset="0.003" stop-color="#424242"/>
<stop offset="0.472" stop-color="#353535"/>
<stop offset="1" stop-color="#212121"/>
</linearGradient>
<linearGradient id="paint9_linear_126_4212" x1="25.116" y1="0.281934" x2="25.116" y2="12.3913" gradientUnits="userSpaceOnUse">
<stop offset="0.003" stop-color="#616161"/>
<stop offset="0.324" stop-color="#505050"/>
<stop offset="0.955" stop-color="#242424"/>
<stop offset="1" stop-color="#212121"/>
</linearGradient>
<radialGradient id="paint10_radial_126_4212" cx="0" cy="0" r="1" gradientUnits="userSpaceOnUse" gradientTransform="translate(25.3437 48.239) scale(21.159 11.1021)">
<stop offset="0.598" stop-color="#212121"/>
<stop offset="1" stop-color="#616161"/>
</radialGradient>
<clipPath id="clip0_126_4212">
<rect width="50" height="50" fill="white" transform="translate(0.34375 0.347168)"/>
</clipPath>
</defs>
</svg>
