<svg width="52" height="53" viewBox="0 0 52 53" fill="none" xmlns="http://www.w3.org/2000/svg">
<path d="M22 45.2688C26.8812 45.2678 31.6217 43.609 35.4667 40.5565L47.5557 52.8287L51.4442 48.8813L39.3552 36.6091C42.3637 32.7054 43.9988 27.8919 44 22.9355C44 10.6215 34.1302 0.602173 22 0.602173C9.86975 0.602173 0 10.6215 0 22.9355C0 35.2495 9.86975 45.2688 22 45.2688ZM22 6.18551C31.0997 6.18551 38.5 13.6979 38.5 22.9355C38.5 32.1731 31.0997 39.6855 22 39.6855C12.9002 39.6855 5.5 32.1731 5.5 22.9355C5.5 13.6979 12.9002 6.18551 22 6.18551Z" fill="#808080"/>
<path d="M25.883 18.988C26.9253 20.0489 27.5 21.4503 27.5 22.9355H33C33.0025 21.4682 32.7184 20.0151 32.1642 18.66C31.6101 17.3049 30.7968 16.0747 29.7715 15.0406C25.608 10.8196 18.3893 10.8196 14.2285 15.0406L18.1115 18.9936C20.2015 16.8775 23.804 16.8831 25.883 18.988Z" fill="#4876EE"/>
</svg>
