<svg width="52" height="53" viewBox="0 0 52 53" fill="none" xmlns="http://www.w3.org/2000/svg">
<path d="M22.5557 45.0111C27.4368 45.0101 32.1774 43.3513 36.0224 40.2988L48.1114 52.571L51.9999 48.6236L39.9109 36.3514C42.9194 32.4477 44.5545 27.6342 44.5557 22.6778C44.5557 10.3638 34.6859 0.344482 22.5557 0.344482C10.4254 0.344482 0.555664 10.3638 0.555664 22.6778C0.555664 34.9919 10.4254 45.0111 22.5557 45.0111ZM22.5557 5.92782C31.6554 5.92782 39.0557 13.4402 39.0557 22.6778C39.0557 31.9154 31.6554 39.4278 22.5557 39.4278C13.4559 39.4278 6.05566 31.9154 6.05566 22.6778C6.05566 13.4402 13.4559 5.92782 22.5557 5.92782Z" fill="#808080"/>
<path d="M26.4387 18.7304C27.4809 19.7912 28.0557 21.1926 28.0557 22.6778H33.5557C33.5581 21.2105 33.274 19.7574 32.7199 18.4023C32.1657 17.0472 31.3525 15.817 30.3272 14.7829C26.1637 10.5619 18.9449 10.5619 14.7842 14.7829L18.6672 18.7359C20.7572 16.6199 24.3597 16.6254 26.4387 18.7304Z" fill="#4876EE"/>
</svg>
