<svg width="37" height="38" viewBox="0 0 37 38" fill="none" xmlns="http://www.w3.org/2000/svg">
<path d="M1.76259 35.6395C1.76259 35.6395 0.373698 26.0562 8.70703 26.0562C10.9237 27.5339 12.8223 28.5555 14.957 28.5513H14.8702C17.0049 28.5555 18.5563 26.7006 20.773 25.2235C30.0188 25.2235 28.3424 35.6402 28.3424 35.6402" fill="#9B9B9A"/>
<path d="M15.1758 32.4131L16.8529 35.5693L21.2779 25.4193L25.7619 32.2138L18.014 35.0825" fill="#D0CFCE"/>
<path d="M16.4909 34.8685C16.0757 35.5873 13.0944 35.5873 12.6791 34.8685L11.4 33.1949L9.04858 27.1255L14.5854 29.0005L19.8444 27.1255L17.5618 33.1949L16.4909 34.8685V34.8685Z" fill="white"/>
<path d="M35.3951 35.3846H24.6416V21.6332H35.2465C35.3284 21.6332 35.3951 21.6992 35.3951 21.7818V35.3846Z" fill="#D0CFCE"/>
<path d="M33.2348 37.104H23.0903V23.9429H30.5577C31.2677 23.9429 31.9486 24.2249 32.4507 24.727C32.9527 25.229 33.2348 25.91 33.2348 26.62V37.104V37.104Z" fill="white"/>
<path d="M12.9825 28.4741C12.9825 28.4741 12.145 32.6554 14.5846 32.6554C17.0242 32.6554 16.1874 28.4741 16.1874 28.4741" fill="#3F3F3F"/>
<path d="M14.0666 32.8804C14.1181 32.7913 14.1921 32.7173 14.2812 32.6658C14.3703 32.6144 14.4714 32.5873 14.5743 32.5873C14.6772 32.5873 14.7783 32.6144 14.8674 32.6658C14.9565 32.7173 15.0305 32.7913 15.0819 32.8804L15.891 34.2811L17.2069 35.6582H11.9417L13.2583 34.2811L14.0666 32.8804V32.8804Z" fill="#3F3F3F"/>
<path d="M13.9945 32.6553L12.3174 34.9088L8.37853 25.9401L5.63062 31.8317L12.198 34.9088" fill="#D0CFCE"/>
<path d="M7.80561 20.1721C5.02783 20.1721 5.02783 16.0055 5.02783 11.1443C5.02783 6.28323 7.80561 1.42212 14.7501 1.42212C21.6945 1.42212 24.4723 6.28323 24.4723 11.1443C24.4723 16.0055 24.4723 20.1721 21.6945 20.1721" fill="#3F3F3F"/>
<path d="M7.06665 14.6165C7.06665 20.8665 10.4951 24.3387 14.7055 24.3387C18.8285 24.3387 22.3889 20.8665 22.3889 14.6165C22.4059 13.423 22.1692 12.2395 21.6944 11.1443C19.6111 9.06097 16.8333 5.58875 16.8333 5.58875C14.0555 7.67208 11.9722 9.75541 7.80554 10.4506C7.80554 10.4506 7.06665 11.1443 7.06665 14.6172V14.6165Z" fill="#FCEA2B"/>
<path d="M33.2348 37.104H23.0903V24.1624H31.3028V25.629H33.2348V37.104Z" stroke="black" stroke-width="1.38889" stroke-miterlimit="10" stroke-linecap="round" stroke-linejoin="round"/>
<path d="M20.7916 33.4005L16.8055 34.913M25.3152 21.7574H35.611V34.6991L25.3152 21.7574ZM31.3027 24.1623L33.2346 25.629L31.3027 24.1623ZM25.1353 28.4741H30.9916H25.1353ZM25.1353 31.3186H30.9916H25.1353ZM25.1353 33.8074H30.9916H25.1353ZM12.9825 28.4741C12.9825 28.4741 12.145 32.6554 14.5846 32.6554C17.0242 32.6554 16.1874 28.4741 16.1874 28.4741H12.9825Z" stroke="black" stroke-width="1.38889" stroke-miterlimit="10" stroke-linecap="round" stroke-linejoin="round"/>
<path d="M1.43397 34.9678C1.43397 34.9678 0.0450848 25.9401 8.37842 25.9401C10.5951 27.4178 12.4937 28.4387 14.6284 28.4345H14.5416C16.6763 28.4387 18.5749 27.4178 20.7916 25.9401" stroke="black" stroke-width="1.38889" stroke-miterlimit="10" stroke-linecap="round" stroke-linejoin="round"/>
<path d="M20.7917 25.9401L16.8528 34.9088L15.1758 32.6553M13.9945 32.6553L12.3174 34.9088L8.37853 25.9401L5.63062 31.8317L12.198 34.9088L13.9945 32.6553Z" stroke="black" stroke-width="1.38889" stroke-miterlimit="10" stroke-linecap="round" stroke-linejoin="round"/>
<path d="M18.8841 13.552C18.8841 13.9203 18.7378 14.2736 18.4773 14.5341C18.2169 14.7945 17.8636 14.9409 17.4952 14.9409C17.1269 14.9409 16.7736 14.7945 16.5131 14.5341C16.2527 14.2736 16.1063 13.9203 16.1063 13.552C16.1063 13.1836 16.2527 12.8303 16.5131 12.5699C16.7736 12.3094 17.1269 12.1631 17.4952 12.1631C17.8636 12.1631 18.2169 12.3094 18.4773 12.5699C18.7378 12.8303 18.8841 13.1836 18.8841 13.552V13.552ZM13.3286 13.552C13.3286 13.9203 13.1822 14.2736 12.9218 14.5341C12.6613 14.7945 12.308 14.9409 11.9397 14.9409C11.5713 14.9409 11.218 14.7945 10.9576 14.5341C10.6971 14.2736 10.5508 13.9203 10.5508 13.552C10.5508 13.1836 10.6971 12.8303 10.9576 12.5699C11.218 12.3094 11.5713 12.1631 11.9397 12.1631C12.308 12.1631 12.6613 12.3094 12.9218 12.5699C13.1822 12.8303 13.3286 13.1836 13.3286 13.552V13.552ZM14.7174 20.4985C13.8835 20.4903 13.0633 20.286 12.323 19.902C12.1583 19.8196 12.033 19.6751 11.9748 19.5003C11.9166 19.3255 11.9302 19.1348 12.0126 18.97C12.095 18.8053 12.2395 18.68 12.4143 18.6218C12.589 18.5636 12.7798 18.5772 12.9445 18.6596C14.0508 19.2568 15.3834 19.2568 16.4904 18.6596C16.6552 18.5773 16.846 18.5638 17.0208 18.6222C17.1073 18.651 17.1873 18.6967 17.2562 18.7565C17.3251 18.8163 17.3815 18.8891 17.4223 18.9707C17.4631 19.0523 17.4874 19.1412 17.4938 19.2322C17.5002 19.3232 17.4887 19.4146 17.4598 19.5011C17.4309 19.5877 17.3852 19.6677 17.3254 19.7366C17.2656 19.8055 17.1928 19.8619 17.1112 19.9027C16.371 20.286 15.551 20.4899 14.7174 20.4978V20.4985Z" fill="black"/>
<path d="M7.80561 20.1721C5.02783 20.1721 5.02783 16.0055 5.02783 11.1443C5.02783 6.28323 7.80561 1.42212 14.7501 1.42212C21.6945 1.42212 24.4723 6.28323 24.4723 11.1443C24.4723 16.0055 24.4723 20.1721 21.6945 20.1721" stroke="black" stroke-width="1.38889" stroke-linecap="round" stroke-linejoin="round"/>
<path d="M7.06665 14.6165C7.06665 20.8665 10.4951 24.3387 14.7055 24.3387C18.8285 24.3387 22.3889 20.8665 22.3889 14.6165C22.4059 13.423 22.1692 12.2395 21.6944 11.1443C19.6111 9.06097 16.8333 5.58875 16.8333 5.58875C14.0555 7.67208 11.9722 9.75541 7.80554 10.4506C7.80554 10.4506 7.06665 11.1443 7.06665 14.6172V14.6165Z" stroke="black" stroke-width="1.38889" stroke-linejoin="round"/>
</svg>
