<svg width="483" height="356" viewBox="0 0 483 356" fill="none" xmlns="http://www.w3.org/2000/svg">
<g clip-path="url(#clip0_126_4127)">
<path d="M380.139 238.759L258.673 266.588C254.553 267.527 250.182 266.974 246.519 265.05C242.857 263.126 240.201 259.988 239.136 256.325L202.401 129.409C201.345 125.744 201.967 121.855 204.129 118.596C206.292 115.338 209.819 112.975 213.937 112.027L326.941 86.1377L355.865 97.6575L391.675 221.377C392.731 225.043 392.109 228.932 389.947 232.191C387.784 235.449 384.257 237.812 380.139 238.759V238.759Z" fill="#F2F2F2"/>
<path d="M215.089 116.007C212.156 116.682 209.644 118.364 208.104 120.684C206.564 123.005 206.122 125.774 206.874 128.385L243.608 255.3C244.367 257.909 246.258 260.144 248.866 261.514C251.474 262.884 254.587 263.278 257.521 262.609L378.987 234.78C381.92 234.105 384.431 232.423 385.971 230.102C387.511 227.782 387.954 225.013 387.202 222.402L351.947 100.599L326.528 90.4753L215.089 116.007Z" fill="white"/>
<path d="M355.556 98.3122L336.758 102.619C335.386 102.933 333.929 102.75 332.709 102.109C331.488 101.468 330.604 100.422 330.251 99.2009L326.676 86.8483C326.66 86.7942 326.662 86.7373 326.681 86.684C326.7 86.6308 326.735 86.5835 326.783 86.5474C326.831 86.5113 326.89 86.488 326.952 86.4801C327.014 86.4721 327.077 86.48 327.135 86.5026L355.609 97.753C355.672 97.778 355.725 97.82 355.76 97.873C355.796 97.9261 355.812 97.9877 355.806 98.0491C355.8 98.1106 355.773 98.169 355.728 98.2161C355.684 98.2633 355.624 98.2969 355.556 98.3122V98.3122Z" fill="#F2F2F2"/>
<path d="M345.667 206.695L290.365 219.365C290.025 219.443 289.671 219.461 289.324 219.417C288.977 219.373 288.642 219.269 288.34 219.11C288.038 218.951 287.774 218.741 287.563 218.492C287.352 218.242 287.199 217.958 287.111 217.656C287.024 217.354 287.004 217.039 287.053 216.73C287.102 216.421 287.22 216.124 287.398 215.855C287.576 215.586 287.812 215.351 288.093 215.164C288.373 214.976 288.692 214.839 289.032 214.762L344.334 202.092C344.674 202.014 345.027 201.996 345.375 202.04C345.722 202.084 346.057 202.188 346.359 202.347C346.661 202.505 346.925 202.716 347.136 202.965C347.346 203.215 347.5 203.498 347.588 203.801C347.675 204.103 347.695 204.418 347.646 204.727C347.596 205.036 347.479 205.333 347.301 205.602C347.122 205.871 346.886 206.106 346.606 206.293C346.325 206.481 346.006 206.617 345.667 206.695Z" fill="#CCCCCC"/>
<path d="M358.587 212.019L292.613 227.134C291.927 227.291 291.199 227.199 290.589 226.879C289.979 226.558 289.536 226.035 289.36 225.425C289.183 224.814 289.286 224.166 289.646 223.624C290.007 223.081 290.595 222.687 291.281 222.53L357.255 207.415C357.941 207.259 358.669 207.351 359.278 207.671C359.888 207.992 360.329 208.515 360.506 209.125C360.683 209.735 360.58 210.383 360.22 210.925C359.86 211.468 359.273 211.861 358.587 212.019V212.019Z" fill="#CCCCCC"/>
<path d="M267.794 234.625C273.009 234.625 277.237 230.864 277.237 226.224C277.237 221.584 273.009 217.823 267.794 217.823C262.579 217.823 258.351 221.584 258.351 226.224C258.351 230.864 262.579 234.625 267.794 234.625Z" fill="#E6E6E6"/>
<path d="M339.786 184.709L266.34 201.53C264.217 202.014 261.966 201.729 260.079 200.737C258.192 199.746 256.825 198.129 256.276 196.242L240.884 143.045C240.341 141.157 240.661 139.153 241.775 137.475C242.889 135.796 244.706 134.579 246.828 134.091L320.274 117.271C322.397 116.787 324.648 117.072 326.535 118.063C328.422 119.054 329.79 120.671 330.338 122.558L345.73 175.755C346.274 177.644 345.953 179.647 344.839 181.326C343.725 183.004 341.908 184.221 339.786 184.709Z" fill="white"/>
<path d="M339.786 184.709L266.34 201.53C264.217 202.014 261.966 201.729 260.079 200.737C258.192 199.746 256.825 198.129 256.276 196.242L240.884 143.045C240.341 141.157 240.661 139.153 241.775 137.475C242.889 135.796 244.706 134.579 246.828 134.091L320.274 117.271C322.397 116.787 324.648 117.072 326.535 118.063C328.422 119.054 329.79 120.671 330.338 122.558L345.73 175.755C346.274 177.644 345.953 179.647 344.839 181.326C343.725 183.004 341.908 184.221 339.786 184.709ZM247.07 134.929C245.198 135.36 243.595 136.433 242.612 137.914C241.629 139.396 241.346 141.163 241.826 142.829L257.218 196.026C257.702 197.692 258.909 199.118 260.573 199.993C262.238 200.867 264.225 201.119 266.098 200.692L339.544 183.871C341.416 183.441 343.019 182.367 344.002 180.886C344.986 179.405 345.268 177.637 344.788 175.971L329.397 122.774C328.913 121.109 327.706 119.682 326.041 118.808C324.376 117.933 322.389 117.681 320.517 118.108L247.07 134.929Z" fill="#E6E6E6"/>
<path d="M316.548 135.158L279.481 143.647C279.157 143.727 278.81 143.695 278.512 143.557C278.213 143.419 277.985 143.186 277.872 142.903C277.82 142.756 277.802 142.601 277.819 142.447C277.837 142.293 277.889 142.144 277.974 142.009C278.058 141.874 278.172 141.755 278.31 141.661C278.447 141.566 278.605 141.498 278.773 141.459L316.505 132.818C318.03 133.505 317.629 134.91 316.548 135.158L316.548 135.158Z" fill="#F2F2F2"/>
<path d="M318.222 140.942L281.155 149.431C280.83 149.512 280.484 149.48 280.186 149.342C279.887 149.204 279.658 148.97 279.546 148.688C279.494 148.541 279.476 148.385 279.493 148.232C279.511 148.078 279.563 147.929 279.647 147.794C279.732 147.658 279.846 147.54 279.984 147.445C280.121 147.351 280.279 147.282 280.447 147.244L318.179 138.602C319.703 139.289 319.302 140.695 318.221 140.942L318.222 140.942Z" fill="#F2F2F2"/>
<path d="M274.094 154.56L262.782 157.151C262.412 157.235 262.02 157.186 261.692 157.013C261.363 156.84 261.125 156.559 261.03 156.231L257.593 144.353C257.499 144.025 257.554 143.676 257.748 143.384C257.942 143.092 258.259 142.88 258.628 142.795L269.941 140.204C270.31 140.12 270.702 140.17 271.03 140.342C271.359 140.515 271.597 140.796 271.692 141.124L275.129 153.002C275.223 153.33 275.168 153.679 274.974 153.971C274.78 154.263 274.464 154.475 274.094 154.56V154.56Z" fill="#E6E6E6"/>
<path d="M321.541 152.811L264.969 165.767C264.645 165.847 264.299 165.815 264 165.677C263.701 165.539 263.473 165.306 263.361 165.024C263.308 164.876 263.29 164.721 263.308 164.567C263.325 164.413 263.378 164.264 263.462 164.129C263.546 163.994 263.661 163.876 263.798 163.781C263.935 163.686 264.093 163.618 264.261 163.579L321.498 150.471C323.023 151.158 322.621 152.563 321.541 152.811L321.541 152.811Z" fill="#F2F2F2"/>
<path d="M323.215 158.597L266.643 171.553C266.319 171.634 265.973 171.602 265.674 171.464C265.376 171.326 265.147 171.092 265.035 170.81C264.983 170.663 264.965 170.507 264.982 170.353C264.999 170.2 265.052 170.051 265.136 169.916C265.22 169.78 265.335 169.662 265.472 169.567C265.61 169.473 265.767 169.404 265.936 169.366L323.173 156.257C324.697 156.944 324.296 158.35 323.215 158.597V158.597Z" fill="#F2F2F2"/>
<path d="M324.888 164.38L268.317 177.336C267.993 177.416 267.646 177.384 267.348 177.246C267.049 177.108 266.821 176.875 266.708 176.592C266.656 176.445 266.638 176.29 266.655 176.136C266.673 175.982 266.725 175.833 266.81 175.698C266.894 175.563 267.008 175.444 267.146 175.35C267.283 175.255 267.441 175.187 267.609 175.148L324.846 162.04C326.37 162.727 325.969 164.132 324.888 164.38V164.38Z" fill="#F2F2F2"/>
<path d="M326.562 170.166L269.99 183.122C269.666 183.202 269.32 183.17 269.022 183.032C268.723 182.894 268.494 182.661 268.382 182.378C268.33 182.231 268.312 182.076 268.329 181.922C268.347 181.768 268.399 181.619 268.483 181.484C268.568 181.349 268.682 181.23 268.819 181.136C268.957 181.041 269.115 180.973 269.283 180.934L326.52 167.826C328.044 168.513 327.643 169.918 326.562 170.166L326.562 170.166Z" fill="#F2F2F2"/>
<path d="M328.235 175.949L271.664 188.905C271.34 188.985 270.993 188.953 270.695 188.815C270.396 188.677 270.168 188.443 270.055 188.161C270.003 188.014 269.985 187.859 270.003 187.705C270.02 187.551 270.072 187.402 270.157 187.267C270.241 187.132 270.355 187.013 270.493 186.919C270.63 186.824 270.788 186.756 270.956 186.717L328.193 173.609C329.717 174.296 329.316 175.701 328.235 175.949V175.949Z" fill="#F2F2F2"/>
<path d="M268.49 229.169C268.285 229.216 268.067 229.203 267.871 229.131L267.859 229.126L265.286 228.156C265.167 228.111 265.059 228.045 264.968 227.963C264.877 227.881 264.805 227.784 264.756 227.677C264.708 227.57 264.683 227.455 264.685 227.34C264.686 227.225 264.712 227.111 264.763 227.005C264.814 226.898 264.888 226.802 264.98 226.721C265.073 226.641 265.182 226.577 265.303 226.534C265.423 226.491 265.552 226.469 265.681 226.471C265.811 226.472 265.939 226.496 266.058 226.541L267.725 227.172L269.909 222.6C269.96 222.494 270.034 222.398 270.126 222.318C270.218 222.237 270.328 222.173 270.448 222.13C270.568 222.087 270.696 222.065 270.826 222.066C270.955 222.068 271.083 222.091 271.202 222.136L271.202 222.136L271.189 222.166L271.203 222.136C271.443 222.228 271.633 222.4 271.731 222.616C271.829 222.831 271.826 223.073 271.724 223.287L269.155 228.662C269.095 228.786 269.004 228.896 268.889 228.984C268.774 229.071 268.638 229.134 268.491 229.167L268.49 229.169Z" fill="white"/>
<path d="M426.729 287.124H301.3C297.047 287.119 292.969 285.614 289.961 282.938C286.953 280.263 285.262 276.635 285.257 272.85V141.794C285.262 138.01 286.953 134.382 289.961 131.706C292.969 129.03 297.047 127.525 301.3 127.521H417.991L442.772 145.094V272.85C442.767 276.635 441.075 280.263 438.068 282.938C435.06 285.614 430.982 287.119 426.729 287.124V287.124Z" fill="#E6E6E6"/>
<path d="M301.3 131.63C298.271 131.633 295.367 132.705 293.225 134.61C291.083 136.516 289.878 139.099 289.875 141.794V272.85C289.878 275.545 291.083 278.129 293.225 280.034C295.367 281.94 298.271 283.011 301.3 283.015H426.729C429.757 283.011 432.661 281.94 434.803 280.034C436.945 278.129 438.15 275.545 438.153 272.85V147.074L416.375 131.63H301.3Z" fill="white"/>
<path d="M402.333 169.737H345.227C344.518 169.737 343.839 169.487 343.338 169.041C342.837 168.596 342.555 167.991 342.555 167.361C342.555 166.73 342.837 166.126 343.338 165.68C343.839 165.234 344.518 164.984 345.227 164.984H402.333C403.041 164.984 403.721 165.234 404.222 165.68C404.723 166.126 405.004 166.73 405.004 167.361C405.004 167.991 404.723 168.596 404.222 169.041C403.721 169.487 403.041 169.737 402.333 169.737V169.737Z" fill="#4876EE"/>
<path d="M413.353 177.759H345.227C344.519 177.759 343.84 177.508 343.34 177.062C342.84 176.616 342.559 176.012 342.559 175.383C342.559 174.753 342.84 174.149 343.34 173.703C343.84 173.257 344.519 173.006 345.227 173.006H413.353C413.704 173.005 414.052 173.066 414.377 173.186C414.701 173.305 414.996 173.48 415.244 173.701C415.493 173.921 415.69 174.184 415.825 174.472C415.959 174.761 416.028 175.07 416.028 175.383C416.028 175.695 415.959 176.004 415.825 176.293C415.69 176.581 415.493 176.844 415.244 177.064C414.996 177.285 414.701 177.46 414.377 177.579C414.052 177.699 413.704 177.76 413.353 177.759V177.759Z" fill="#4876EE"/>
<path d="M402.333 200.933H345.229C344.521 200.933 343.841 201.183 343.34 201.629C342.839 202.075 342.558 202.679 342.558 203.31C342.558 203.94 342.839 204.544 343.34 204.99C343.841 205.436 344.521 205.686 345.229 205.686H402.333C403.042 205.686 403.721 205.436 404.222 204.99C404.723 204.544 405.005 203.94 405.005 203.31C405.005 202.679 404.723 202.075 404.222 201.629C403.721 201.183 403.042 200.933 402.333 200.933V200.933Z" fill="#CCCCCC"/>
<path d="M413.354 208.956H345.229C344.521 208.956 343.841 209.207 343.34 209.652C342.839 210.098 342.558 210.703 342.558 211.333C342.558 211.963 342.839 212.568 343.34 213.014C343.841 213.459 344.521 213.71 345.229 213.71H413.354C414.063 213.71 414.742 213.459 415.243 213.014C415.744 212.568 416.026 211.963 416.026 211.333C416.026 210.703 415.744 210.098 415.243 209.652C414.742 209.207 414.063 208.956 413.354 208.956Z" fill="#CCCCCC"/>
<path d="M402.333 241.639H345.227C344.518 241.639 343.839 241.388 343.338 240.943C342.837 240.497 342.555 239.892 342.555 239.262C342.555 238.632 342.837 238.027 343.338 237.581C343.839 237.135 344.518 236.885 345.227 236.885H402.333C403.041 236.885 403.721 237.135 404.222 237.581C404.723 238.027 405.004 238.632 405.004 239.262C405.004 239.892 404.723 240.497 404.222 240.943C403.721 241.388 403.041 241.639 402.333 241.639V241.639Z" fill="#CCCCCC"/>
<path d="M413.353 249.661H345.227C344.519 249.66 343.84 249.409 343.34 248.963C342.84 248.518 342.559 247.914 342.559 247.284C342.559 246.654 342.84 246.05 343.34 245.604C343.84 245.159 344.519 244.908 345.227 244.907H413.353C413.704 244.907 414.052 244.968 414.377 245.087C414.701 245.206 414.996 245.381 415.244 245.602C415.493 245.823 415.69 246.085 415.825 246.374C415.959 246.662 416.028 246.971 416.028 247.284C416.028 247.596 415.959 247.906 415.825 248.194C415.69 248.483 415.493 248.745 415.244 248.966C414.996 249.187 414.701 249.362 414.377 249.481C414.052 249.6 413.704 249.661 413.353 249.661Z" fill="#CCCCCC"/>
<path d="M321.447 179.773C326.662 179.773 330.889 176.011 330.889 171.372C330.889 166.732 326.662 162.97 321.447 162.97C316.232 162.97 312.004 166.732 312.004 171.372C312.004 176.011 316.232 179.773 321.447 179.773Z" fill="#4876EE"/>
<path d="M320.51 174.576C320.298 174.577 320.091 174.516 319.921 174.402L319.911 174.395L317.692 172.885C317.588 172.815 317.502 172.727 317.437 172.628C317.372 172.528 317.329 172.418 317.312 172.303C317.295 172.189 317.304 172.073 317.337 171.961C317.371 171.85 317.428 171.745 317.507 171.654C317.586 171.562 317.685 171.485 317.797 171.428C317.909 171.37 318.033 171.332 318.162 171.317C318.29 171.302 318.421 171.31 318.546 171.34C318.672 171.37 318.789 171.422 318.892 171.492L320.329 172.473L323.726 168.53C323.804 168.439 323.903 168.362 324.015 168.305C324.127 168.247 324.251 168.21 324.379 168.195C324.507 168.179 324.638 168.187 324.763 168.217C324.888 168.247 325.005 168.298 325.108 168.368L325.108 168.368L325.087 168.394L325.109 168.368C325.316 168.51 325.451 168.719 325.486 168.95C325.52 169.18 325.45 169.413 325.291 169.598L321.296 174.233C321.203 174.34 321.084 174.426 320.948 174.486C320.812 174.545 320.663 174.576 320.511 174.575L320.51 174.576Z" fill="white"/>
<path d="M331.859 207.321C331.86 208.425 331.616 209.517 331.142 210.537C330.668 211.557 329.972 212.483 329.096 213.263C328.219 214.044 327.178 214.663 326.032 215.085C324.886 215.508 323.658 215.725 322.418 215.725C322.337 215.727 322.256 215.724 322.175 215.717C320.319 215.674 318.517 215.146 316.996 214.197C315.476 213.249 314.303 211.922 313.626 210.383C312.948 208.845 312.796 207.163 313.187 205.547C313.579 203.932 314.498 202.456 315.828 201.302C317.158 200.149 318.841 199.371 320.666 199.064C322.491 198.758 324.377 198.937 326.088 199.579C327.8 200.222 329.26 201.299 330.286 202.676C331.313 204.053 331.86 205.669 331.859 207.321V207.321Z" fill="#CCCCCC"/>
<path d="M321.447 251.674C326.662 251.674 330.889 247.913 330.889 243.273C330.889 238.633 326.662 234.872 321.447 234.872C316.232 234.872 312.004 238.633 312.004 243.273C312.004 247.913 316.232 251.674 321.447 251.674Z" fill="#CCCCCC"/>
<path d="M442.289 145.66H422.877C421.46 145.66 420.101 145.159 419.099 144.267C418.097 143.376 417.534 142.167 417.534 140.906V128.15C417.534 128.094 417.552 128.04 417.585 127.992C417.619 127.945 417.666 127.907 417.723 127.883C417.779 127.858 417.842 127.849 417.905 127.855C417.967 127.861 418.026 127.883 418.075 127.917L442.497 145.13C442.551 145.168 442.591 145.22 442.61 145.28C442.629 145.339 442.627 145.402 442.605 145.46C442.582 145.518 442.539 145.569 442.483 145.605C442.426 145.64 442.359 145.66 442.289 145.66Z" fill="#CCCCCC"/>
<path d="M331.859 207.321C331.86 208.425 331.616 209.517 331.142 210.537C330.668 211.556 329.972 212.483 329.096 213.263C328.219 214.044 327.178 214.663 326.032 215.085C324.887 215.508 323.659 215.725 322.418 215.725C322.337 215.727 322.256 215.724 322.175 215.717C320.955 213.01 320.485 210.081 320.804 207.179C321.123 204.276 322.222 201.484 324.008 199.038C326.205 199.373 328.197 200.388 329.634 201.904C331.071 203.42 331.859 205.339 331.859 207.321V207.321Z" fill="#4876EE"/>
<path d="M342.555 203.312C342.556 202.681 342.839 202.077 343.34 201.631C343.841 201.185 344.52 200.934 345.229 200.933H359.459C360.29 202.437 360.881 204.037 361.214 205.686H345.229C344.521 205.686 343.841 205.436 343.34 204.991C342.839 204.546 342.557 203.942 342.555 203.312V203.312Z" fill="#4876EE"/>
<path d="M361.545 208.956C361.546 210.562 361.307 212.16 360.835 213.71H345.229C344.521 213.71 343.841 213.459 343.34 213.014C342.839 212.568 342.558 211.963 342.558 211.333C342.558 210.703 342.839 210.098 343.34 209.652C343.841 209.207 344.521 208.956 345.229 208.956H361.545Z" fill="#4876EE"/>
<path d="M396.753 238.272C396.35 238.86 395.701 239.281 394.949 239.443C394.197 239.605 393.404 239.494 392.743 239.136L358.71 220.667C358.383 220.49 358.098 220.257 357.873 219.981C357.647 219.706 357.484 219.394 357.394 219.063C357.304 218.731 357.288 218.388 357.347 218.051C357.406 217.714 357.539 217.391 357.739 217.1C357.938 216.809 358.2 216.556 358.51 216.355C358.819 216.154 359.17 216.01 359.542 215.929C359.914 215.849 360.301 215.835 360.679 215.887C361.058 215.94 361.421 216.058 361.748 216.236L395.781 234.705C396.442 235.063 396.915 235.641 397.097 236.309C397.279 236.978 397.155 237.684 396.753 238.272V238.272Z" fill="#3F3D56"/>
<path d="M364.704 215.681C362.301 219.187 358.783 221.979 354.595 223.706C350.408 225.433 345.739 226.016 341.179 225.382C336.619 224.748 332.373 222.926 328.977 220.145C325.582 217.364 323.189 213.749 322.102 209.758C321.016 205.768 321.283 201.58 322.872 197.724C324.46 193.869 327.298 190.519 331.027 188.099C334.755 185.679 339.206 184.296 343.818 184.126C348.429 183.957 352.993 185.007 356.934 187.146C362.212 190.017 365.994 194.634 367.451 199.984C368.908 205.334 367.92 210.979 364.704 215.681ZM329.84 196.762C328.038 199.391 327.152 202.436 327.295 205.513C327.438 208.59 328.604 211.561 330.644 214.048C332.684 216.536 335.508 218.43 338.758 219.49C342.008 220.55 345.539 220.728 348.903 220.003C352.267 219.278 355.314 217.682 357.658 215.416C360.003 213.15 361.539 210.317 362.074 207.274C362.608 204.231 362.116 201.116 360.661 198.322C359.205 195.528 356.851 193.18 353.896 191.577C349.932 189.431 345.173 188.772 340.663 189.744C336.153 190.716 332.261 193.24 329.84 196.762V196.762Z" fill="#3F3D56"/>
</g>
<path fill-rule="evenodd" clip-rule="evenodd" d="M80.6738 252.086L64.2694 246.483C45.1576 255.746 18.732 219.861 34.1657 197.017C43.7628 182.811 9.05052 175.572 7.86883 197.562C4.78095 255.667 53.8684 289.838 124.305 240.022L80.6738 252.086Z" fill="#E36325"/>
<path fill-rule="evenodd" clip-rule="evenodd" d="M56.6138 247.922C53.1482 247.686 49.6812 246.365 46.4259 244.224C40.1685 249.127 41.7329 256.795 43.338 261.193C46.3823 262.204 49.5954 262.984 52.9787 263.489C51.2895 255.745 53.8245 250.841 56.6138 247.922ZM41.3119 239.983C39.4929 238.153 37.8027 236.09 36.3207 233.872C27.3145 245.508 36.9551 255.239 35.9837 249.595C34.9255 243.679 41.3119 239.983 41.3119 239.983ZM32.2181 226.048C31.0772 223.246 30.2761 220.288 29.8526 217.293C21.355 217.526 14.9281 220.055 10.1908 223.012C11.6292 228.655 13.7021 233.832 16.363 238.503C19.9162 231.653 27.5272 227.839 32.2181 226.048ZM29.5132 212.699C29.5132 209.781 29.9374 206.901 30.7822 204.137C14.9686 204.956 12.5179 217.098 16.618 214.607C19.5772 212.856 25.876 212.661 29.5132 212.699ZM32.3461 200.129C32.8955 199.078 33.4891 198.028 34.1644 197.016C34.419 196.626 34.6729 196.238 34.8403 195.848C25.1582 188.532 15.137 189.543 9.51693 191.099C8.58423 192.89 7.99338 195.031 7.86748 197.561C7.73876 200.325 7.69515 203.048 7.78026 205.734C17.5475 198.183 27.9489 199.195 32.3461 200.129ZM19.7463 243.797C21.5646 246.246 23.5531 248.505 25.7083 250.567C23.8485 242.355 29.6824 233.795 26.0473 235.623C23.3403 236.986 21.1851 240.682 19.7463 243.797Z" fill="#322212"/>
<path fill-rule="evenodd" clip-rule="evenodd" d="M137.244 307.506C151.025 307.506 162.315 297.155 162.315 284.468C162.315 271.741 151.025 261.39 137.244 261.39C123.459 261.39 112.17 271.741 112.17 284.468C112.169 297.154 123.459 307.506 137.244 307.506Z" fill="#F9E2C3"/>
<path fill-rule="evenodd" clip-rule="evenodd" d="M79.9976 258.158C79.9976 258.158 63.845 251.542 55.4732 264.773C47.1015 277.966 68.0322 322.841 77.5857 327.512C87.1412 332.22 102.996 332.493 103.589 325.33C104.222 318.17 79.9976 258.158 79.9976 258.158Z" fill="#E36325"/>
<path fill-rule="evenodd" clip-rule="evenodd" d="M80.6302 316.264C91.5397 311.398 78.475 312.566 67.27 314.862C68.2843 316.614 69.2993 318.248 70.3143 319.727C73.5678 319.104 76.6975 318.014 80.6302 316.264Z" fill="#322212"/>
<path fill-rule="evenodd" clip-rule="evenodd" d="M78.5594 307.816C92.8495 305.289 87.7766 299.645 66.7636 302.835C64.9861 303.263 63.3395 303.693 61.8159 304.119C62.7894 306.26 63.7608 308.323 64.8187 310.347C69.3429 309.454 73.782 308.635 78.5594 307.816Z" fill="#322212"/>
<path fill-rule="evenodd" clip-rule="evenodd" d="M71.7077 297.739C84.138 295.636 85.0679 290.772 77.4185 288.903C71.3687 287.463 63.2101 288.202 56.7417 290.733C57.6716 293.806 58.8118 296.919 60.0399 299.956C63.8449 299.139 67.8633 298.4 71.7077 297.739Z" fill="#322212"/>
<path fill-rule="evenodd" clip-rule="evenodd" d="M72.4274 280.302C86.7174 277.811 81.6446 272.13 60.6316 275.359C58.0523 275.943 55.7683 276.566 53.7397 277.189C53.9529 279.213 54.3327 281.352 54.7984 283.571C60.7599 282.403 66.2984 281.353 72.4274 280.302Z" fill="#322212"/>
<path fill-rule="evenodd" clip-rule="evenodd" d="M137.244 319.337C151.025 319.337 162.315 308.986 162.315 296.299C162.315 283.572 151.025 273.221 137.244 273.221C123.459 273.221 112.17 283.572 112.17 296.299C112.169 308.986 123.459 319.337 137.244 319.337Z" fill="#F9E2C3"/>
<path fill-rule="evenodd" clip-rule="evenodd" d="M125.573 288.087L128.492 285.985C128.492 285.985 128.532 281.742 130.477 280.381C132.381 278.981 145.528 276.684 145.91 287.931C145.91 287.931 146.501 282.482 149.884 279.953C153.308 277.462 190.343 261.66 190.343 261.66L209.416 262.321C209.416 262.321 214.361 240.41 213.133 234.261C211.907 228.153 188.611 220.251 179.14 221.223C169.672 222.198 71.4531 223.482 71.4531 223.482L60.125 237.492C60.125 237.492 61.5198 258.352 65.9582 271.39C70.3973 284.39 65.8731 270.534 65.8731 270.534L93.8603 273.298C93.8603 273.298 113.311 276.334 116.44 278.124C119.61 279.875 125.952 281.665 126.967 283.417C127.983 285.207 125.573 288.087 125.573 288.087Z" fill="#F48020"/>
<path fill-rule="evenodd" clip-rule="evenodd" d="M64.8187 233.95L65.1993 241.578C65.1993 241.578 63.2959 255.667 67.7786 277.422C72.2592 299.179 71.3701 322.024 83.3354 327.782C95.3008 333.582 122.191 333.582 127.899 328.367C133.566 323.113 128.492 288.436 128.492 281.275C128.492 274.114 113.82 243.289 103.673 237.802C93.4836 232.277 64.8187 233.95 64.8187 233.95Z" fill="#F48020"/>
<path fill-rule="evenodd" clip-rule="evenodd" d="M113.608 318.055C141.174 311.087 59.1111 312.8 86.8464 318.598C97.3318 320.817 103.248 320.661 113.608 318.055Z" fill="#322212"/>
<path fill-rule="evenodd" clip-rule="evenodd" d="M113.184 307.311C131.45 307.156 126.629 299.257 99.911 298.867C73.2315 300.346 68.708 308.48 86.9307 307.857C95.9784 307.546 104.139 307.351 113.184 307.311Z" fill="#322212"/>
<path fill-rule="evenodd" clip-rule="evenodd" d="M107.31 293.652C123.165 293.652 125.574 287.892 116.568 284.078C106.377 279.718 89.3825 280.03 80.4607 286.102C74.6275 290.033 78.136 294.545 92.3852 293.963C97.2478 293.769 102.406 293.652 107.31 293.652Z" fill="#322212"/>
<path fill-rule="evenodd" clip-rule="evenodd" d="M112.634 272.557C130.857 272.441 126.079 264.502 99.3612 264.112C72.6817 265.63 68.1582 273.725 86.3809 273.103C95.4265 272.792 103.59 272.636 112.634 272.557Z" fill="#322212"/>
<path fill-rule="evenodd" clip-rule="evenodd" d="M154.921 262.661C154.921 262.661 169.19 252.329 180.776 261.011C192.357 269.658 182.999 313.63 174.743 320.382C166.5 327.163 150.928 332.064 148.541 326.205C146.155 320.347 154.921 262.661 154.921 262.661Z" fill="#E36325"/>
<path fill-rule="evenodd" clip-rule="evenodd" d="M162.975 319.66C151.822 315.381 164.93 315.852 176.241 317.548C175.325 319.352 174.395 321.038 173.504 322.566C170.18 322.119 166.998 321.197 162.975 319.66Z" fill="#322212"/>
<path fill-rule="evenodd" clip-rule="evenodd" d="M164.571 310.643C150.163 308.879 154.932 302.973 176.082 305.041C177.923 305.372 179.55 305.715 181.094 306.06C180.235 308.25 179.372 310.362 178.426 312.439C173.861 311.787 169.385 311.206 164.571 310.643Z" fill="#322212"/>
<path fill-rule="evenodd" clip-rule="evenodd" d="M170.818 299.144C158.291 297.706 157.103 292.898 164.648 290.624C170.608 288.865 178.793 289.168 185.39 291.351C184.625 294.469 183.649 297.639 182.587 300.737C178.745 300.123 174.691 299.599 170.818 299.144Z" fill="#322212"/>
<path fill-rule="evenodd" clip-rule="evenodd" d="M169.255 283.371C154.853 281.645 159.619 275.702 180.815 277.805C183.377 278.253 185.733 278.752 187.751 279.268C187.648 281.301 187.382 283.456 187.034 285.698C181.063 284.846 175.434 284.094 169.255 283.371Z" fill="#322212"/>
<path fill-rule="evenodd" clip-rule="evenodd" d="M160.189 237.576L166.262 232.945C166.262 232.945 175.794 222.397 195.304 211.78C214.814 201.159 231.691 185.736 243.811 191.157C255.964 196.553 273.322 217.094 273.021 224.817C272.665 232.537 242.904 251.044 237.434 255.666C231.965 260.288 198.95 268.977 188.21 264.768C177.415 260.553 160.189 237.576 160.189 237.576Z" fill="#F48020"/>
<path fill-rule="evenodd" clip-rule="evenodd" d="M257.741 222.174C270.833 247.312 217.837 184.599 240.44 201.7C248.965 208.168 252.786 212.691 257.741 222.174Z" fill="#322212"/>
<path fill-rule="evenodd" clip-rule="evenodd" d="M249.614 228.713C261.552 242.479 252.606 243.951 234.674 224.118C218.113 203.133 221.055 194.555 232.639 208.625C238.417 215.645 243.683 221.876 249.614 228.713Z" fill="#322212"/>
<path fill-rule="evenodd" clip-rule="evenodd" d="M235.758 232.999C246.2 244.935 243.562 250.374 234.888 246.081C224.951 241.193 213.95 228.238 212.477 217.692C211.512 210.759 217.137 210.542 226.099 221.57C229.176 225.391 232.506 229.331 235.758 232.999Z" fill="#322212"/>
<path fill-rule="evenodd" clip-rule="evenodd" d="M223.869 250.468C235.808 264.233 226.861 265.706 208.93 245.872C192.369 224.888 195.311 216.31 206.894 230.38C212.674 237.399 217.94 243.63 223.869 250.468Z" fill="#322212"/>
<path fill-rule="evenodd" clip-rule="evenodd" d="M104.307 248.115C104.011 248.466 104.392 249.791 104.392 250.88C104.392 251.929 102.742 251.62 102.742 251.62C97.754 250.645 87.353 248.973 82.0248 240.644C76.741 232.315 67.9887 227.061 65.7899 229.434C63.6347 231.77 57.7136 234.494 57.7136 232.121C57.7136 229.785 59.3623 223.675 54.3739 214.062C49.3854 204.488 62.6197 190.827 62.6197 190.827L134.451 188.881L213.938 190.827C213.938 190.827 225.099 204.488 220.111 214.062C215.119 223.674 216.517 231.886 216.517 234.223C216.517 236.595 210.599 233.871 208.399 231.535C206.2 229.161 197.49 234.415 192.162 242.745C186.878 251.072 176.731 250.645 171.746 251.619C171.746 251.619 170.096 251.929 170.096 250.879C170.096 249.79 170.474 248.466 170.178 248.115C169.883 247.726 161.511 252.007 158.719 257.224C155.888 262.478 148.871 272.985 134.834 273.22C134.834 273.22 136.565 270.223 129.208 266.486C121.895 262.711 110.479 256.755 104.307 248.115Z" fill="#F5CAA5"/>
<path fill-rule="evenodd" clip-rule="evenodd" d="M187.022 47.8003C185.538 -18.8986 304.378 36.3966 212.877 84.1345L187.022 47.8003Z" fill="#F48020"/>
<path fill-rule="evenodd" clip-rule="evenodd" d="M197.516 50.0128C196.574 8.34928 270.853 42.8837 213.656 72.7123L197.516 50.0128Z" fill="#E36325"/>
<path fill-rule="evenodd" clip-rule="evenodd" d="M64.2403 79.8028C32.9779 20.8657 -43.7908 127.145 59.371 124.145L64.2403 79.8028Z" fill="#F48020"/>
<path fill-rule="evenodd" clip-rule="evenodd" d="M56.161 86.8564C36.6062 50.0443 -11.3649 116.443 53.1157 114.556L56.161 86.8564Z" fill="#E36325"/>
<path fill-rule="evenodd" clip-rule="evenodd" d="M114.133 30.1583C114.133 30.1583 154.513 16.6176 181.823 34.395C201.979 47.5218 211.274 71.1202 235.795 89.2637C243.105 94.6784 249.937 101.102 253.889 109.563C276.572 158.026 202.409 198.03 160.721 208.896C118.99 219.773 34.7362 221.061 30.8762 167.69C30.2347 158.366 33.0201 149.436 36.7992 141.131C49.3425 113.327 45.8973 88.2039 57.1214 66.898C72.2785 38.0521 114.133 30.1583 114.133 30.1583Z" fill="#F48020"/>
<path fill-rule="evenodd" clip-rule="evenodd" d="M224.56 79.6838C227.954 82.9811 231.677 86.1939 235.796 89.2642C236.98 90.1197 238.125 90.9896 239.247 91.9423C234.688 98.0788 239.017 109.821 239.24 119.738C239.505 131.814 223.668 137.107 230.885 129.434C238.138 121.712 232.054 110.267 226.635 98.5284C221.214 86.7893 224.56 79.6838 224.56 79.6838Z" fill="#322212"/>
<path fill-rule="evenodd" clip-rule="evenodd" d="M175.57 67.2344C188.345 61.934 204.175 70.8798 210.877 87.1915C217.614 103.494 212.695 120.983 199.907 126.246C187.124 131.508 171.301 122.602 164.605 106.289C157.864 89.9897 162.787 72.498 175.57 67.2344Z" fill="#F9E2C3"/>
<path fill-rule="evenodd" clip-rule="evenodd" d="M78.6081 92.5073C64.8702 94.1175 55.4182 109.653 57.4944 127.17C59.61 144.677 72.4447 157.539 86.1721 155.891C99.8975 154.244 109.32 138.758 107.244 121.24C105.127 103.736 92.3362 90.8608 78.6081 92.5073Z" fill="#F9E2C3"/>
<path fill-rule="evenodd" clip-rule="evenodd" d="M152.318 132.74L149.735 127.861C149.735 127.861 159.438 126.701 158.109 118.078C156.725 109.429 153.923 97.1692 154.213 94.9223C154.543 92.6651 170.44 126.166 167.297 135.392C164.12 144.664 156.705 139.519 156.705 139.519L152.318 132.74Z" fill="#E36325"/>
<path fill-rule="evenodd" clip-rule="evenodd" d="M246.21 98.3726C249.255 101.681 251.92 105.371 253.89 109.563C276.572 158.027 202.41 198.03 160.721 208.896C118.99 219.773 34.7367 221.061 30.8766 167.691C30.5457 163.072 31.0715 158.549 32.1559 154.165C38.932 195.754 87.5546 188.351 95.6946 170.462C103.784 152.548 124.645 145.584 124.645 145.584C124.645 145.584 133.313 146.821 144.977 148.489C154.343 141.34 161.262 136.039 161.262 136.039C161.262 136.039 182.868 131.935 198.712 143.611C214.547 155.251 260.555 137.989 246.21 98.3726Z" fill="#F9E2C3"/>
<path fill-rule="evenodd" clip-rule="evenodd" d="M164.101 128.34C171.367 131.232 166.345 155.547 148.057 160.313C129.727 165.091 113.516 146.311 118.443 140.241C125.107 132.109 154.318 124.496 164.101 128.34Z" fill="#322212"/>
<path d="M183.485 156.268C183.141 154.95 184.01 153.598 185.402 153.236C186.834 152.862 188.255 153.618 188.598 154.935C189.982 160.246 188.907 165.674 186.002 170.132C183.153 174.614 178.476 178.127 172.706 179.631C166.897 181.145 161.103 180.363 156.424 177.842C151.717 175.368 148.127 171.156 146.742 165.845L142.266 148.673C141.923 147.354 142.797 146 144.228 145.627C145.618 145.265 147.039 146.021 147.382 147.339L151.858 164.511C152.898 168.503 155.65 171.687 159.162 173.588C162.702 175.439 167.102 176.062 171.479 174.921C175.817 173.791 179.354 171.098 181.541 167.755C183.678 164.382 184.525 160.259 183.485 156.268Z" fill="#322212"/>
<path d="M110.046 175.41C109.703 174.091 110.575 172.739 111.967 172.377C113.399 172.003 114.819 172.758 115.162 174.076C116.203 178.068 118.912 181.263 122.463 183.153C126.006 185.003 130.364 185.638 134.744 184.496C139.121 183.355 142.616 180.674 144.801 177.331C146.979 173.947 147.784 169.836 146.744 165.845L142.268 148.672C141.924 147.354 142.798 146 144.23 145.627C145.62 145.265 147.04 146.021 147.384 147.339L151.859 164.511C153.244 169.822 152.169 175.249 149.308 179.696C146.415 184.19 141.738 187.703 135.971 189.206C130.201 190.71 124.405 189.928 119.728 187.406C115.019 184.933 111.431 180.72 110.046 175.41Z" fill="#322212"/>
<path fill-rule="evenodd" clip-rule="evenodd" d="M217.741 138.366C224.363 135.916 228.905 131.621 227.851 128.772C226.811 125.963 220.568 125.658 213.946 128.108C207.284 130.573 202.743 134.867 203.783 137.677C204.837 140.526 211.08 140.83 217.741 138.366Z" fill="#E34A26"/>
<path fill-rule="evenodd" clip-rule="evenodd" d="M81.4174 177.563C87.9508 174.889 92.383 170.426 91.2326 167.615C90.098 164.842 83.8084 164.767 77.2751 167.441C70.7392 170.115 66.3076 174.578 67.4422 177.351C68.5926 180.162 74.8818 180.238 81.4174 177.563Z" fill="#E34A26"/>
<path fill-rule="evenodd" clip-rule="evenodd" d="M181.397 79.2943C188.054 76.6827 196.761 82.4692 200.874 92.1669C204.986 101.866 202.925 111.837 196.258 114.411C189.601 117.02 180.892 111.236 176.784 101.538C172.67 91.839 174.776 81.8573 181.397 79.2943Z" fill="#322212"/>
<path fill-rule="evenodd" clip-rule="evenodd" d="M77.8872 104.377C71.0285 106.394 67.6936 116.304 70.3902 126.486C73.124 136.651 80.8646 143.267 87.7086 141.215C94.5662 139.196 97.9023 129.288 95.2084 119.105C92.4714 108.94 84.7309 102.325 77.8872 104.377Z" fill="#322212"/>
<path fill-rule="evenodd" clip-rule="evenodd" d="M83.3502 122.39C85.6789 121.281 86.6103 118.423 85.4723 116.034C84.3177 113.609 81.528 112.567 79.1994 113.676C76.8707 114.785 75.8832 117.627 77.0378 120.051C78.1763 122.44 81.0216 123.499 83.3502 122.39Z" fill="white"/>
<path fill-rule="evenodd" clip-rule="evenodd" d="M186.51 96.56C188.986 96.0185 190.583 93.4378 190.018 90.8526C189.445 88.2295 186.924 86.5887 184.448 87.1302C181.926 87.6817 180.318 90.2251 180.891 92.8482C181.457 95.4337 183.987 97.1115 186.51 96.56Z" fill="white"/>
<path fill-rule="evenodd" clip-rule="evenodd" d="M165.811 24.3899C165.811 24.3899 162.718 30.4951 150.929 31.5504C139.148 32.6456 124.553 31.8715 122.992 33.3275C121.457 34.7363 126.017 37.9284 127.159 41.9326C128.302 45.938 127.586 48.2051 131.755 47.0973C135.882 46.0019 145.263 42.5157 151.922 43.9757C158.542 45.4449 162.275 45.4324 169.596 43.6683C176.919 41.9022 164.876 50.2342 149.862 51.0798C134.817 51.9709 131.263 52.6202 129.341 54.6658C127.45 56.6636 129.83 62.5401 132.329 63.2855C134.878 64.0556 144.697 57.3278 150.482 58.955C156.297 60.5348 156.164 62.0702 163.486 60.3042C170.807 58.5401 162.388 66.3232 153.612 66.0771C144.785 65.8005 136.494 68.4918 135.348 70.6385C134.151 72.7616 134.273 75.0344 135.163 82.4696C136.053 89.9051 136.912 95.5286 134.978 96.7669C132.641 96.7464 130.442 91.5056 127.275 84.7201C124.068 77.9457 122.97 75.9515 120.875 74.7677C118.727 73.5604 110.268 75.648 102.952 80.53C95.6294 85.3695 84.3287 83.2117 91.4806 80.8468C98.6327 78.4825 97.7488 77.238 101.815 72.8392C105.911 68.3932 117.801 68.9278 119.52 66.9398C121.29 64.9766 120.212 58.7286 117.51 58.0411C114.838 57.3061 111.478 58.6296 98.2251 65.8112C84.9852 73.0264 70.3961 72.2922 77.549 69.9284C84.6589 67.5754 87.8377 65.6162 92.727 60.8635C97.5717 56.1215 107.421 54.1216 111.505 52.8743C115.592 51.6276 113.828 50.068 112.685 46.0619C111.542 42.0578 113.731 36.9402 111.645 36.5645C109.59 36.1402 97.5586 44.51 86.9756 49.7956C76.4014 55.1197 70.5926 51.5548 70.5926 51.5548L70.5564 50.9585C88.6674 33.6915 115.364 28.0162 115.364 28.0162C115.364 28.0162 141.034 18.7517 165.491 23.8746L165.811 24.3899Z" fill="#322212"/>
<path fill-rule="evenodd" clip-rule="evenodd" d="M44.9856 116.872C43.5942 121.395 41.8757 126.001 39.7379 130.674C39.111 131.993 38.5252 133.306 37.9992 134.681C44.9498 137.87 46.7993 150.247 51.3661 159.051C56.9386 169.769 73.3693 166.798 63.3498 163.539C53.2813 160.253 53.1174 147.292 52.2277 134.393C51.2952 121.505 44.9856 116.872 44.9856 116.872Z" fill="#322212"/>
<defs>
<clipPath id="clip0_126_4127">
<rect width="281" height="269" fill="white" transform="translate(201.893 86.1377)"/>
</clipPath>
</defs>
</svg>
