<svg width="29" height="49" viewBox="0 0 29 49" fill="none" xmlns="http://www.w3.org/2000/svg">
<path fill-rule="evenodd" clip-rule="evenodd" d="M7.19751 3.34734C7.19751 2.49486 7.52249 1.67729 8.10097 1.0745C8.67944 0.471703 9.46402 0.133057 10.2821 0.133057H18.5077C19.3258 0.133057 20.1103 0.471703 20.6888 1.0745C21.2673 1.67729 21.5923 2.49486 21.5923 3.34734V5.49019C21.5923 6.34267 21.2673 7.16023 20.6888 7.76303C20.1103 8.36582 19.3258 8.70447 18.5077 8.70447H10.2821C9.46402 8.70447 8.67944 8.36582 8.10097 7.76303C7.52249 7.16023 7.19751 6.34267 7.19751 5.49019V3.34734ZM10.2821 2.27591C10.0094 2.27591 9.74788 2.38879 9.55505 2.58972C9.36223 2.79065 9.2539 3.06318 9.2539 3.34734V5.49019C9.2539 5.77435 9.36223 6.04687 9.55505 6.2478C9.74788 6.44873 10.0094 6.56161 10.2821 6.56161H18.5077C18.7804 6.56161 19.0419 6.44873 19.2347 6.2478C19.4275 6.04687 19.5359 5.77435 19.5359 5.49019V3.34734C19.5359 3.06318 19.4275 2.79065 19.2347 2.58972C19.0419 2.38879 18.7804 2.27591 18.5077 2.27591H10.2821Z" fill="black"/>
<path fill-rule="evenodd" clip-rule="evenodd" d="M8.22557 8.70435H3.08459C2.26651 8.70435 1.48193 9.04299 0.903455 9.64579C0.324982 10.2486 0 11.0661 0 11.9186V45.1329C0 45.9854 0.324982 46.8029 0.903455 47.4057C1.48193 48.0085 2.26651 48.3472 3.08459 48.3472H25.7049C26.523 48.3472 27.3076 48.0085 27.886 47.4057C28.4645 46.8029 28.7895 45.9854 28.7895 45.1329V11.9186C28.7895 11.0661 28.4645 10.2486 27.886 9.64579C27.3076 9.04299 26.523 8.70435 25.7049 8.70435H20.5639V10.8472C20.5639 11.4155 20.3473 11.9606 19.9616 12.3624C19.576 12.7643 19.0529 12.9901 18.5075 12.9901H10.282C9.73658 12.9901 9.21353 12.7643 8.82788 12.3624C8.44223 11.9606 8.22557 11.4155 8.22557 10.8472V8.70435ZM5.14098 23.7043C5.14098 23.4202 5.24931 23.1476 5.44213 22.9467C5.63496 22.7458 5.89648 22.6329 6.16918 22.6329H13.3666C13.6393 22.6329 13.9008 22.7458 14.0936 22.9467C14.2864 23.1476 14.3948 23.4202 14.3948 23.7043C14.3948 23.9885 14.2864 24.261 14.0936 24.4619C13.9008 24.6629 13.6393 24.7758 13.3666 24.7758H6.16918C5.89648 24.7758 5.63496 24.6629 5.44213 24.4619C5.24931 24.261 5.14098 23.9885 5.14098 23.7043ZM6.16918 17.2758C5.89648 17.2758 5.63496 17.3886 5.44213 17.5896C5.24931 17.7905 5.14098 18.063 5.14098 18.3472C5.14098 18.6314 5.24931 18.9039 5.44213 19.1048C5.63496 19.3057 5.89648 19.4186 6.16918 19.4186H22.1062C22.3789 19.4186 22.6404 19.3057 22.8333 19.1048C23.0261 18.9039 23.1344 18.6314 23.1344 18.3472C23.1344 18.063 23.0261 17.7905 22.8333 17.5896C22.6404 17.3886 22.3789 17.2758 22.1062 17.2758H6.16918ZM7.19738 32.2758V34.4186H9.25377V32.2758H7.19738ZM6.16918 30.1329C5.89648 30.1329 5.63496 30.2458 5.44213 30.4467C5.24931 30.6476 5.14098 30.9202 5.14098 31.2043V35.49C5.14098 35.7742 5.24931 36.0467 5.44213 36.2476C5.63496 36.4486 5.89648 36.5615 6.16918 36.5615H10.282C10.5547 36.5615 10.8162 36.4486 11.009 36.2476C11.2018 36.0467 11.3102 35.7742 11.3102 35.49V31.2043C11.3102 30.9202 11.2018 30.6476 11.009 30.4467C10.8162 30.2458 10.5547 30.1329 10.282 30.1329H6.16918ZM21.5921 32.2758C21.5921 33.1282 21.2671 33.9458 20.6887 34.5486C20.1102 35.1514 19.3256 35.49 18.5075 35.49C17.6895 35.49 16.9049 35.1514 16.3264 34.5486C15.7479 33.9458 15.4229 33.1282 15.4229 32.2758C15.4229 31.4233 15.7479 30.6057 16.3264 30.0029C16.9049 29.4001 17.6895 29.0615 18.5075 29.0615C19.3256 29.0615 20.1102 29.4001 20.6887 30.0029C21.2671 30.6057 21.5921 31.4233 21.5921 32.2758V32.2758ZM18.5075 36.9022C16.4481 36.9022 12.3384 38.0443 12.3384 40.3115V42.99H24.6767V40.3115C24.6767 38.0443 20.567 36.9022 18.5075 36.9022Z" fill="black"/>
</svg>
